<?xml version="1.0" encoding="UTF-8" standalone="no"?>
<!DOCTYPE svg PUBLIC "-//W3C//DTD SVG 1.1//EN" "http://www.w3.org/Graphics/SVG/1.1/DTD/svg11.dtd">
<svg version="1.1" xmlns="http://www.w3.org/2000/svg" xmlns:xlink="http://www.w3.org/1999/xlink"
     preserveAspectRatio="xMidYMid meet" viewBox="0 0 640 640">
    <defs>
        <path d="M470.97 123.1L472.83 123.29L474.67 123.56L476.48 123.89L478.27 124.3L480.03 124.78L481.77 125.32L483.47 125.92L485.14 126.59L486.78 127.33L488.38 128.12L489.95 128.97L491.48 129.89L492.98 130.85L494.43 131.88L495.84 132.95L497.2 134.08L498.53 135.26L499.8 136.49L501.03 137.77L502.21 139.09L503.34 140.46L504.41 141.87L505.44 143.32L506.4 144.81L507.31 146.34L508.17 147.91L508.96 149.51L509.69 151.15L510.36 152.82L510.96 154.53L511.5 156.26L511.98 158.02L512.38 159.81L512.72 161.62L512.98 163.46L513.17 165.32L513.29 167.21L513.33 169.11L513.33 211.72L490.92 211.72L490.85 211.72L490.78 211.72L490.71 211.72L490.64 211.72L490.57 211.72L490.5 211.72L490.43 211.73L490.36 211.73L490.29 211.73L490.22 211.74L490.15 211.74L490.08 211.75L490.01 211.75L489.94 211.75L489.87 211.76L489.8 211.77L489.73 211.77L489.67 211.78L489.6 211.78L489.53 211.79L489.46 211.8L489.39 211.81L489.32 211.81L489.25 211.82L489.19 211.83L489.12 211.84L489.05 211.85L488.98 211.86L488.91 211.86L488.85 211.87L488.78 211.88L488.71 211.89L488.64 211.9L488.57 211.91L488.51 211.92L488.44 211.93L488.37 211.94L488.3 211.95L488.24 211.97L488.17 211.98L488.17 198.69L47.55 198.69L47.55 465.36L47.57 466.21L47.62 467.06L47.71 467.9L47.83 468.73L47.98 469.55L48.17 470.36L48.39 471.16L48.64 471.94L48.92 472.71L49.22 473.47L49.56 474.22L49.92 474.94L50.31 475.66L50.73 476.35L51.17 477.03L51.64 477.69L52.13 478.33L52.65 478.96L53.19 479.56L53.75 480.14L54.33 480.7L54.93 481.24L55.56 481.76L56.2 482.25L56.86 482.72L57.54 483.16L58.23 483.58L58.95 483.97L59.68 484.33L60.42 484.67L61.18 484.97L61.95 485.25L62.73 485.5L63.53 485.72L64.34 485.9L65.16 486.06L65.99 486.18L66.82 486.27L67.67 486.32L68.53 486.34L467.19 486.34L467.92 486.33L468.65 486.29L469.37 486.22L470.09 486.13L470.8 486.01L471.5 485.87L472.19 485.71L472.87 485.53L473.55 485.32L474.21 485.09L474.86 484.83L475.51 484.56L476.14 484.27L476.77 483.95L477.38 483.62L477.97 483.26L478.56 482.89L479.13 482.5L479.69 482.09L480.24 481.66L480.77 481.21L481.29 480.75L481.79 480.27L482.27 479.78L482.74 479.27L483.2 478.74L483.63 478.21L484.05 477.65L484.45 477.08L484.84 476.5L485.2 475.91L485.55 475.31L485.87 474.69L486.18 474.06L486.46 473.42L486.73 472.77L486.97 472.11L487.19 471.44L487.39 470.76L487.57 470.07L487.62 470.08L487.67 470.09L487.73 470.1L487.79 470.11L487.84 470.12L487.9 470.13L487.96 470.14L488.03 470.15L488.09 470.16L488.16 470.17L488.22 470.18L488.29 470.19L488.36 470.2L488.43 470.2L488.5 470.21L488.58 470.22L488.65 470.23L488.73 470.24L488.8 470.25L488.88 470.26L488.96 470.26L489.05 470.27L489.13 470.28L489.21 470.29L489.3 470.3L489.39 470.3L489.48 470.31L489.57 470.32L489.66 470.33L489.75 470.33L489.85 470.34L489.94 470.35L490.04 470.36L490.14 470.36L490.24 470.37L490.34 470.38L490.44 470.38L490.55 470.39L490.65 470.4L490.76 470.4L490.85 470.4L512.82 470.38L512.6 472.1L512.31 473.8L511.97 475.48L511.56 477.14L511.1 478.77L510.58 480.38L510.01 481.96L509.38 483.52L508.69 485.04L507.95 486.54L507.17 488L506.33 489.44L505.44 490.84L504.51 492.2L503.52 493.53L502.5 494.82L501.42 496.07L500.31 497.29L499.15 498.46L497.95 499.59L496.72 500.68L495.44 501.72L494.13 502.72L492.78 503.67L491.39 504.57L489.97 505.42L488.52 506.22L487.04 506.98L485.52 507.67L483.98 508.32L482.41 508.91L480.81 509.44L479.19 509.91L477.54 510.33L475.87 510.68L474.17 510.98L472.45 511.21L470.72 511.38L468.96 511.48L467.19 511.52L68.53 511.52L66.63 511.48L64.74 511.36L62.88 511.17L61.04 510.9L59.23 510.57L57.44 510.16L55.68 509.69L53.94 509.15L52.24 508.54L50.57 507.87L48.93 507.14L47.33 506.34L45.76 505.49L44.22 504.58L42.73 503.61L41.28 502.58L39.87 501.51L38.5 500.38L37.18 499.2L35.9 497.97L34.67 496.69L33.5 495.37L32.37 494.01L31.29 492.59L30.27 491.14L29.3 489.65L28.39 488.12L27.53 486.55L26.74 484.95L26.01 483.31L25.34 481.64L24.73 479.93L24.19 478.2L23.72 476.44L23.31 474.65L22.97 472.84L22.71 471L22.52 469.14L22.4 467.26L22.36 465.36L22.36 169.11L22.4 167.21L22.52 165.32L22.71 163.46L22.97 161.62L23.31 159.81L23.72 158.02L24.19 156.26L24.73 154.53L25.34 152.82L26.01 151.15L26.74 149.51L27.53 147.91L28.39 146.34L29.3 144.81L30.27 143.32L31.29 141.87L32.37 140.45L33.5 139.09L34.67 137.77L35.9 136.49L37.18 135.26L38.5 134.08L39.87 132.95L41.28 131.88L42.73 130.85L44.22 129.89L45.76 128.97L47.33 128.12L48.93 127.33L50.57 126.59L52.24 125.92L53.94 125.32L55.68 124.77L57.44 124.3L59.23 123.89L61.04 123.56L62.88 123.29L64.74 123.1L66.63 122.98L68.53 122.94L467.19 122.94L469.09 122.98L470.97 123.1ZM459.7 152.84L458.49 153.23L457.35 153.75L456.29 154.4L455.32 155.17L454.45 156.05L453.68 157.02L453.03 158.08L452.51 159.23L452.12 160.44L451.88 161.7L451.8 163.02L451.88 164.34L452.12 165.6L452.51 166.81L453.03 167.95L453.68 169.01L454.45 169.98L455.32 170.86L456.29 171.63L457.35 172.28L458.49 172.8L459.7 173.19L460.97 173.43L462.29 173.51L463.6 173.43L464.87 173.19L466.08 172.8L467.22 172.28L468.29 171.63L469.26 170.86L470.14 169.98L470.9 169.01L471.55 167.95L472.08 166.81L472.46 165.6L472.7 164.34L472.78 163.02L472.7 161.7L472.46 160.44L472.08 159.23L471.55 158.08L470.9 157.02L470.13 156.05L469.26 155.17L468.28 154.4L467.22 153.75L466.08 153.23L464.87 152.84L463.6 152.6L462.29 152.52L460.97 152.6L459.7 152.84ZM379.35 153.17L378.86 153.21L378.38 153.27L377.91 153.35L377.45 153.45L376.99 153.58L376.55 153.72L376.11 153.89L375.68 154.08L375.26 154.28L374.86 154.51L374.47 154.75L374.09 155.01L373.72 155.28L373.37 155.58L373.03 155.89L372.7 156.21L372.39 156.55L372.1 156.9L371.82 157.27L371.56 157.65L371.32 158.04L371.09 158.45L370.89 158.86L370.7 159.29L370.54 159.72L370.39 160.17L370.26 160.63L370.16 161.09L370.08 161.56L370.02 162.04L369.98 162.53L369.97 163.02L369.98 163.51L370.02 164L370.08 164.48L370.16 164.95L370.27 165.41L370.39 165.87L370.54 166.32L370.7 166.75L370.89 167.18L371.1 167.59L371.32 168L371.56 168.39L371.82 168.77L372.1 169.14L372.39 169.49L372.7 169.83L373.03 170.15L373.37 170.46L373.72 170.76L374.09 171.03L374.47 171.29L374.86 171.54L375.27 171.76L375.68 171.97L376.11 172.15L376.55 172.32L376.99 172.47L377.45 172.59L377.91 172.7L378.38 172.78L378.86 172.84L379.35 172.87L379.84 172.88L431.42 172.88L431.92 172.87L432.41 172.84L432.89 172.78L433.36 172.7L433.83 172.59L434.28 172.47L434.73 172.32L435.17 172.15L435.6 171.97L436.01 171.76L436.42 171.54L436.81 171.29L437.19 171.03L437.56 170.76L437.91 170.46L438.25 170.15L438.58 169.83L438.89 169.49L439.18 169.14L439.46 168.77L439.72 168.39L439.96 168L440.18 167.59L440.39 167.18L440.58 166.75L440.74 166.32L440.89 165.87L441.01 165.41L441.12 164.95L441.2 164.48L441.26 164L441.29 163.51L441.31 163.02L441.29 162.53L441.26 162.04L441.2 161.56L441.12 161.09L441.01 160.63L440.89 160.17L440.74 159.72L440.58 159.29L440.39 158.86L440.18 158.45L439.96 158.04L439.72 157.65L439.46 157.27L439.18 156.9L438.89 156.55L438.58 156.21L438.25 155.89L437.91 155.58L437.56 155.28L437.19 155.01L436.81 154.75L436.42 154.51L436.01 154.28L435.6 154.08L435.17 153.89L434.73 153.72L434.28 153.58L433.83 153.45L433.36 153.35L432.89 153.27L432.41 153.21L431.92 153.17L431.42 153.16L379.84 153.16L379.35 153.17Z"
              id="dozhZ6WzI"></path>
        <path d="M503.75 287.68L504.12 287.69L504.49 287.69L504.86 287.71L505.23 287.72L505.6 287.74L505.97 287.76L506.34 287.78L506.71 287.81L507.08 287.84L507.44 287.87L507.81 287.9L508.17 287.94L508.54 287.97L508.9 288.01L509.27 288.06L509.63 288.1L509.99 288.15L510.35 288.2L510.71 288.25L511.07 288.31L511.43 288.37L511.79 288.43L512.14 288.49L512.5 288.55L512.86 288.62L513.21 288.69L513.56 288.76L513.92 288.84L514.27 288.91L514.62 288.99L514.97 289.07L515.32 289.15L515.67 289.24L516.01 289.32L516.36 289.41L516.71 289.5L517.05 289.6L517.4 289.69L518.06 289.89L518.73 290.09L519.39 290.29L520.05 290.51L520.7 290.74L521.35 290.97L522 291.21L522.64 291.46L523.28 291.72L523.92 291.98L524.55 292.25L525.17 292.53L525.8 292.82L526.41 293.12L527.03 293.42L527.64 293.73L528.24 294.05L528.84 294.37L529.44 294.7L530.03 295.04L530.61 295.39L531.19 295.75L531.77 296.11L532.34 296.48L532.9 296.85L533.47 297.24L534.02 297.63L534.57 298.02L535.11 298.43L535.65 298.84L536.19 299.25L536.72 299.68L537.24 300.11L537.75 300.55L538.27 300.99L538.77 301.44L539.27 301.9L539.76 302.36L540.25 302.83L540.73 303.31L541.45 304.04L542.15 304.78L542.84 305.54L543.52 306.31L544.18 307.1L544.83 307.89L545.46 308.7L546.07 309.53L546.67 310.36L547.26 311.21L547.82 312.06L548.37 312.93L548.91 313.81L549.43 314.7L549.93 315.61L550.42 316.52L550.88 317.44L551.33 318.38L551.76 319.32L552.18 320.27L552.58 321.24L552.95 322.21L553.31 323.19L553.65 324.18L553.97 325.18L554.28 326.18L554.56 327.2L554.82 328.22L555.07 329.25L555.29 330.29L555.49 331.34L555.67 332.39L555.84 333.45L555.98 334.52L556.1 335.59L556.2 336.67L556.27 337.76L556.33 338.85L556.36 339.95L556.37 341.05L556.36 342.15L556.33 343.25L556.27 344.34L556.2 345.43L556.1 346.51L555.98 347.59L555.84 348.65L555.67 349.71L555.49 350.77L555.29 351.81L555.07 352.85L554.82 353.89L554.56 354.91L554.28 355.92L553.97 356.93L553.65 357.93L553.31 358.92L552.95 359.9L552.58 360.87L552.18 361.84L551.76 362.79L551.33 363.73L550.88 364.67L550.42 365.59L549.93 366.5L549.43 367.4L548.91 368.29L548.37 369.17L547.82 370.04L547.26 370.9L546.67 371.75L546.07 372.58L545.46 373.4L544.83 374.21L544.18 375.01L543.52 375.79L542.84 376.56L542.15 377.32L541.45 378.06L540.73 378.79L540.22 379.29L539.71 379.78L539.19 380.27L538.67 380.75L538.14 381.22L537.6 381.68L537.05 382.14L536.5 382.59L535.95 383.03L535.38 383.46L534.82 383.89L534.24 384.31L533.66 384.72L533.08 385.13L532.48 385.52L531.89 385.91L531.28 386.29L530.68 386.66L530.06 387.03L529.44 387.39L528.82 387.73L528.19 388.07L527.56 388.41L526.92 388.73L526.27 389.05L525.62 389.35L524.97 389.65L524.31 389.94L523.65 390.23L522.98 390.5L522.31 390.76L521.63 391.02L520.95 391.27L520.26 391.5L519.57 391.73L518.88 391.95L518.18 392.17L517.48 392.37L516.77 392.56L516.06 392.74L515.75 392.82L515.43 392.9L515.12 392.97L514.8 393.05L514.48 393.12L514.17 393.19L513.85 393.26L513.53 393.33L513.21 393.39L512.89 393.45L512.57 393.51L512.25 393.57L511.92 393.63L511.6 393.69L511.28 393.74L510.95 393.79L510.63 393.84L510.3 393.89L509.98 393.94L509.65 393.98L509.32 394.02L508.99 394.06L508.67 394.1L508.34 394.14L508.01 394.17L507.68 394.2L507.35 394.23L507.01 394.26L506.68 394.29L506.35 394.31L506.02 394.33L505.68 394.35L505.35 394.37L505.02 394.38L504.68 394.4L504.35 394.41L504.01 394.41L503.67 394.42L503.34 394.42L503 394.43L502.68 394.42L502.37 394.42L502.05 394.42L501.74 394.41L501.43 394.4L501.12 394.39L500.8 394.38L500.49 394.36L500.18 394.35L499.87 394.33L499.56 394.31L499.25 394.29L498.95 394.26L498.64 394.24L498.33 394.21L498.02 394.18L497.72 394.15L497.41 394.12L497.11 394.08L496.8 394.05L496.5 394.01L496.2 393.97L495.89 393.93L495.59 393.89L495.29 393.84L494.99 393.8L494.69 393.75L494.39 393.7L494.09 393.65L493.79 393.6L493.49 393.54L493.19 393.49L492.89 393.43L492.6 393.37L492.3 393.31L492 393.25L491.71 393.19L491.41 393.12L491.12 393.06L490.82 392.99L490.09 392.81L489.35 392.62L488.62 392.42L487.9 392.22L487.18 392L486.46 391.77L485.75 391.54L485.04 391.29L484.34 391.04L483.64 390.77L482.95 390.5L482.26 390.21L481.58 389.92L480.9 389.62L480.22 389.31L479.56 388.99L478.89 388.66L478.23 388.32L477.58 387.98L476.93 387.62L476.29 387.26L475.66 386.89L475.03 386.51L474.4 386.12L473.78 385.72L473.17 385.31L472.56 384.9L471.96 384.48L471.36 384.05L470.77 383.61L470.19 383.16L469.62 382.71L469.05 382.24L468.48 381.77L467.93 381.3L467.38 380.81L466.83 380.32L466.3 379.82L465.77 379.31L465.24 378.79L464.52 378.06L463.82 377.32L463.13 376.56L462.45 375.79L461.79 375.01L461.15 374.21L460.52 373.4L459.9 372.58L459.3 371.75L458.72 370.9L458.15 370.04L457.6 369.17L457.06 368.29L456.55 367.4L456.05 366.5L455.56 365.59L455.09 364.67L454.65 363.73L454.21 362.79L453.8 361.84L453.41 360.87L453.03 359.9L452.67 358.92L452.33 357.93L452.01 356.93L451.71 355.92L451.43 354.91L451.16 353.89L450.92 352.85L450.7 351.81L450.5 350.77L450.32 349.71L450.15 348.65L450.01 347.59L449.89 346.51L449.8 345.43L449.72 344.34L449.66 343.25L449.63 342.15L449.62 341.05L449.63 339.95L449.66 338.85L449.72 337.76L449.8 336.67L449.89 335.59L450.01 334.52L450.15 333.45L450.32 332.39L450.5 331.34L450.7 330.29L450.92 329.25L451.16 328.22L451.43 327.2L451.71 326.18L452.01 325.18L452.33 324.18L452.67 323.19L453.03 322.21L453.41 321.24L453.8 320.27L454.21 319.32L454.65 318.38L455.09 317.44L455.56 316.52L456.05 315.61L456.55 314.7L457.06 313.81L457.6 312.93L458.15 312.06L458.72 311.21L459.3 310.36L459.9 309.53L460.52 308.7L461.15 307.89L461.79 307.1L462.45 306.31L463.13 305.54L463.82 304.78L464.52 304.04L465.24 303.31L465.82 302.74L466.4 302.18L467 301.63L467.6 301.09L468.21 300.56L468.82 300.04L469.45 299.52L470.08 299.02L470.73 298.53L471.37 298.04L472.03 297.57L472.7 297.11L473.37 296.65L474.05 296.21L474.73 295.78L475.43 295.35L476.13 294.94L476.83 294.54L477.55 294.14L478.27 293.76L478.99 293.39L479.73 293.03L480.47 292.68L481.21 292.34L481.97 292.02L482.72 291.7L483.49 291.4L484.26 291.1L485.03 290.82L485.81 290.55L486.6 290.29L487.39 290.05L488.19 289.81L488.99 289.59L489.8 289.38L490.61 289.18L491.43 288.99L492.25 288.82L493.08 288.66L493.91 288.51L494.13 288.47L494.35 288.43L494.57 288.4L494.8 288.36L495.02 288.33L495.24 288.29L495.47 288.26L495.69 288.23L495.91 288.19L496.14 288.16L496.36 288.13L496.59 288.1L496.81 288.08L497.04 288.05L497.26 288.02L497.49 287.99L497.71 287.97L497.94 287.95L498.17 287.92L498.39 287.9L498.62 287.88L498.85 287.86L499.08 287.84L499.3 287.82L499.53 287.8L499.76 287.79L499.99 287.77L500.22 287.76L500.45 287.74L500.68 287.73L500.91 287.72L501.14 287.71L501.37 287.7L501.6 287.69L501.83 287.69L502.07 287.68L502.3 287.68L502.53 287.68L502.76 287.67L503 287.67L503.37 287.67L503.75 287.68ZM502.18 321.15L501.77 321.17L501.37 321.2L500.97 321.24L500.57 321.29L500.17 321.35L499.78 321.41L499.39 321.48L499 321.56L498.62 321.65L498.24 321.74L497.86 321.85L497.48 321.96L497.11 322.07L496.74 322.2L496.37 322.33L496.01 322.46L495.65 322.61L495.3 322.76L494.94 322.91L494.59 323.07L494.25 323.24L493.91 323.42L493.12 323.85L492.35 324.31L491.6 324.81L490.88 325.34L490.19 325.9L489.51 326.49L488.87 327.1L488.25 327.75L487.67 328.42L487.11 329.12L486.59 329.84L486.09 330.58L485.63 331.35L485.21 332.14L484.82 332.96L484.47 333.79L484.15 334.64L483.87 335.51L483.64 336.39L483.44 337.3L483.29 338.21L483.17 339.15L483.11 340.09L483.08 341.05L483.11 342.01L483.17 342.95L483.29 343.88L483.44 344.8L483.64 345.7L483.87 346.59L484.15 347.45L484.47 348.3L484.82 349.14L485.21 349.95L485.63 350.74L486.09 351.51L486.59 352.25L487.11 352.98L487.67 353.67L488.25 354.35L488.87 354.99L489.51 355.61L490.19 356.2L490.88 356.76L491.6 357.29L492.35 357.78L493.12 358.25L493.91 358.68L494.25 358.86L494.59 359.02L494.94 359.19L495.3 359.34L495.65 359.49L496.01 359.64L496.37 359.78L496.74 359.91L497.11 360.03L497.48 360.15L497.86 360.26L498.24 360.36L498.62 360.46L499 360.54L499.39 360.62L499.78 360.7L500.17 360.76L500.57 360.82L500.97 360.86L501.37 360.9L501.77 360.93L502.18 360.96L502.59 360.97L503 360.98L503.7 360.96L504.4 360.93L505.09 360.86L505.78 360.78L506.46 360.67L507.13 360.54L507.79 360.39L508.44 360.21L509.09 360.01L509.72 359.8L510.34 359.56L510.96 359.3L511.56 359.02L512.15 358.72L512.74 358.4L513.31 358.07L513.86 357.71L514.41 357.34L514.94 356.95L515.46 356.55L515.96 356.12L516.46 355.68L516.93 355.23L517.4 354.76L517.82 354.31L518.22 353.84L518.62 353.37L518.99 352.88L519.36 352.38L519.71 351.86L520.04 351.34L520.35 350.8L520.65 350.26L520.94 349.7L521.2 349.14L521.45 348.56L521.68 347.98L521.89 347.39L522.08 346.79L522.26 346.18L522.41 345.56L522.55 344.94L522.67 344.3L522.76 343.67L522.84 343.02L522.89 342.37L522.92 341.71L522.93 341.05L522.92 340.39L522.89 339.73L522.84 339.08L522.76 338.43L522.67 337.79L522.55 337.16L522.41 336.53L522.26 335.92L522.08 335.31L521.89 334.71L521.68 334.11L521.45 333.53L521.2 332.96L520.94 332.39L520.65 331.84L520.35 331.29L520.04 330.76L519.71 330.23L519.36 329.72L518.99 329.22L518.62 328.73L518.22 328.25L517.82 327.78L517.4 327.33L516.93 326.86L516.46 326.41L515.96 325.97L515.46 325.55L514.94 325.15L514.41 324.76L513.86 324.39L513.3 324.03L512.73 323.7L512.15 323.38L511.56 323.08L510.96 322.81L510.34 322.55L509.72 322.31L509.08 322.09L508.44 321.89L507.79 321.72L507.13 321.57L506.46 321.44L505.78 321.33L505.09 321.24L504.4 321.18L503.7 321.15L503 321.13L502.59 321.14L502.18 321.15Z"
              id="e1sD9Ld1o"></path>
        <path d="M515.2 226.44L515.27 226.45L515.33 226.45L515.4 226.46L515.46 226.47L515.53 226.47L515.59 226.48L515.65 226.49L515.72 226.51L515.78 226.52L515.84 226.53L515.9 226.55L515.97 226.57L516.03 226.58L516.09 226.6L516.15 226.62L516.21 226.64L516.27 226.67L516.33 226.69L516.39 226.71L516.45 226.74L516.5 226.77L516.56 226.79L516.62 226.82L516.67 226.85L516.73 226.88L516.79 226.91L516.84 226.94L516.89 226.98L516.95 227.01L517 227.04L517.05 227.08L517.1 227.12L517.15 227.15L517.2 227.19L517.25 227.23L517.3 227.27L517.35 227.31L517.4 227.35L517.45 227.39L517.49 227.44L517.54 227.48L517.59 227.53L517.63 227.57L517.68 227.62L517.72 227.67L517.76 227.72L517.81 227.76L517.85 227.81L517.89 227.86L517.93 227.92L517.96 227.97L518 228.02L518.04 228.07L518.07 228.13L518.11 228.18L518.14 228.23L518.17 228.29L518.2 228.35L518.23 228.4L518.26 228.46L518.29 228.52L518.32 228.57L518.34 228.63L518.37 228.69L518.39 228.75L518.41 228.81L518.43 228.87L518.45 228.93L518.47 228.99L518.49 229.05L518.5 229.11L518.52 229.18L518.53 229.24L518.54 229.3L518.55 229.37L518.56 229.43L518.57 229.49L518.58 229.56L521.44 253.69L522.26 253.86L523.08 254.05L523.9 254.24L524.71 254.44L525.52 254.64L526.33 254.86L527.14 255.08L527.94 255.3L528.73 255.54L529.53 255.78L530.32 256.03L531.11 256.29L531.89 256.56L532.67 256.83L533.45 257.11L534.23 257.39L535 257.68L535.77 257.98L536.53 258.29L537.29 258.6L538.05 258.92L538.8 259.25L539.55 259.59L540.3 259.93L541.04 260.27L541.78 260.63L542.52 260.99L543.25 261.35L543.97 261.73L544.7 262.11L545.42 262.49L546.13 262.89L546.84 263.28L547.55 263.69L548.26 264.1L548.96 264.52L549.65 264.94L550.34 265.37L551.03 265.81L551.71 266.25L570.79 251.2L570.9 251.12L571 251.05L571.11 250.98L571.23 250.91L571.34 250.85L571.46 250.8L571.58 250.74L571.7 250.7L571.82 250.65L571.94 250.62L572.06 250.58L572.19 250.55L572.31 250.53L572.44 250.51L572.57 250.49L572.7 250.48L572.82 250.47L572.95 250.47L573.08 250.47L573.21 250.48L573.33 250.49L573.46 250.5L573.59 250.52L573.71 250.54L573.84 250.57L573.96 250.6L574.08 250.63L574.2 250.67L574.32 250.72L574.44 250.77L574.56 250.82L574.67 250.87L574.78 250.93L574.89 251L575 251.06L575.1 251.14L575.21 251.21L575.31 251.29L575.4 251.38L575.49 251.47L592.57 268.56L592.66 268.65L592.74 268.75L592.83 268.85L592.91 268.95L592.98 269.05L593.05 269.16L593.12 269.27L593.18 269.38L593.23 269.5L593.29 269.61L593.33 269.73L593.38 269.85L593.42 269.97L593.45 270.1L593.49 270.22L593.51 270.34L593.53 270.47L593.55 270.6L593.57 270.72L593.58 270.85L593.58 270.98L593.58 271.1L593.58 271.23L593.57 271.36L593.56 271.49L593.54 271.61L593.52 271.74L593.49 271.86L593.46 271.98L593.43 272.11L593.39 272.23L593.35 272.35L593.3 272.46L593.25 272.58L593.19 272.69L593.13 272.81L593.06 272.92L592.99 273.02L592.92 273.13L592.84 273.23L577.79 292.33L578.23 293.01L578.67 293.7L579.1 294.39L579.53 295.09L579.94 295.79L580.36 296.49L580.76 297.2L581.16 297.91L581.56 298.63L581.94 299.35L582.32 300.07L582.7 300.8L583.07 301.53L583.43 302.27L583.78 303.01L584.13 303.75L584.47 304.5L584.81 305.25L585.13 306L585.45 306.76L585.77 307.52L586.07 308.28L586.37 309.05L586.67 309.82L586.95 310.6L587.23 311.38L587.5 312.16L587.77 312.94L588.02 313.73L588.27 314.52L588.52 315.32L588.75 316.12L588.98 316.92L589.2 317.72L589.41 318.53L589.62 319.34L589.82 320.15L590.01 320.97L590.19 321.78L590.37 322.61L614.49 325.48L614.61 325.49L614.74 325.52L614.86 325.54L614.99 325.57L615.11 325.61L615.23 325.65L615.35 325.7L615.46 325.75L615.58 325.8L615.69 325.86L615.8 325.93L615.91 325.99L616.02 326.06L616.12 326.14L616.23 326.21L616.33 326.3L616.42 326.38L616.52 326.47L616.61 326.56L616.7 326.65L616.78 326.75L616.86 326.85L616.94 326.95L617.02 327.05L617.09 327.16L617.15 327.27L617.22 327.38L617.28 327.49L617.33 327.61L617.38 327.73L617.43 327.84L617.47 327.96L617.51 328.09L617.54 328.21L617.57 328.33L617.6 328.46L617.62 328.58L617.63 328.71L617.64 328.84L617.64 328.97L617.64 353.12L617.64 353.25L617.63 353.38L617.62 353.5L617.6 353.63L617.57 353.76L617.55 353.88L617.51 354.01L617.48 354.13L617.43 354.25L617.39 354.37L617.34 354.49L617.28 354.6L617.22 354.72L617.16 354.83L617.09 354.94L617.02 355.05L616.95 355.15L616.87 355.26L616.79 355.36L616.7 355.45L616.61 355.55L616.52 355.64L616.43 355.73L616.33 355.81L616.23 355.89L616.13 355.97L616.03 356.05L615.92 356.12L615.81 356.19L615.7 356.25L615.58 356.31L615.47 356.36L615.35 356.42L615.23 356.46L615.11 356.51L614.99 356.54L614.87 356.58L614.74 356.6L614.62 356.63L614.49 356.65L590.37 359.48L590.2 360.3L590.01 361.12L589.82 361.94L589.63 362.75L589.42 363.56L589.21 364.37L588.99 365.18L588.76 365.98L588.52 366.78L588.28 367.57L588.03 368.36L587.77 369.15L587.51 369.94L587.24 370.72L586.96 371.5L586.67 372.27L586.38 373.05L586.08 373.82L585.77 374.58L585.46 375.34L585.14 376.1L584.81 376.85L584.48 377.61L584.14 378.35L583.79 379.1L583.43 379.84L583.07 380.57L582.7 381.31L582.33 382.03L581.95 382.76L581.56 383.48L581.17 384.2L580.77 384.91L580.36 385.62L579.95 386.33L579.53 387.03L579.11 387.72L578.68 388.42L578.24 389.11L577.79 389.79L592.85 408.86L592.92 408.97L593 409.07L593.07 409.18L593.13 409.29L593.2 409.41L593.25 409.52L593.3 409.64L593.35 409.76L593.39 409.88L593.43 410L593.47 410.12L593.5 410.25L593.52 410.37L593.54 410.5L593.56 410.63L593.57 410.75L593.58 410.88L593.59 411.01L593.59 411.13L593.58 411.26L593.57 411.39L593.56 411.51L593.54 411.64L593.52 411.76L593.49 411.89L593.46 412.01L593.42 412.13L593.38 412.25L593.34 412.37L593.29 412.49L593.24 412.6L593.18 412.71L593.12 412.83L593.06 412.93L592.99 413.04L592.91 413.14L592.83 413.25L592.75 413.34L592.66 413.44L592.57 413.53L580.16 425.96L575.5 430.61L575.41 430.7L575.31 430.79L575.21 430.87L575.11 430.95L575.01 431.02L574.9 431.09L574.79 431.15L574.68 431.22L574.56 431.27L574.45 431.32L574.33 431.37L574.21 431.42L574.09 431.46L573.97 431.49L573.84 431.52L573.72 431.55L573.59 431.57L573.47 431.59L573.34 431.6L573.21 431.61L573.08 431.62L572.96 431.62L572.83 431.62L572.7 431.61L572.57 431.6L572.45 431.58L572.32 431.56L572.19 431.54L572.07 431.51L571.95 431.47L571.82 431.43L571.7 431.39L571.58 431.34L571.46 431.29L571.35 431.24L571.23 431.18L571.12 431.11L571.01 431.04L570.9 430.97L570.8 430.89L564.55 425.96L551.72 415.84L551.23 416.16L550.74 416.47L550.24 416.79L549.74 417.1L549.24 417.4L548.74 417.71L548.24 418L547.73 418.3L547.22 418.59L546.71 418.88L546.2 419.17L545.68 419.45L545.17 419.73L544.65 420.01L544.12 420.28L543.6 420.55L543.07 420.82L542.55 421.08L542.02 421.34L541.48 421.6L540.95 421.85L540.42 422.1L539.88 422.34L539.34 422.59L538.8 422.83L538.25 423.06L537.71 423.29L537.16 423.52L536.61 423.75L536.06 423.97L535.51 424.19L534.95 424.4L534.4 424.61L533.84 424.82L533.28 425.02L532.72 425.22L532.16 425.42L531.6 425.61L531.03 425.8L530.46 425.99L530.24 426.06L530.02 426.13L529.8 426.2L529.57 426.27L529.35 426.34L529.13 426.41L528.91 426.47L528.68 426.54L528.46 426.61L528.24 426.68L528.01 426.74L527.79 426.81L527.56 426.87L527.34 426.94L527.12 427L526.89 427.07L526.67 427.13L526.44 427.19L526.22 427.25L525.99 427.32L525.77 427.38L525.54 427.44L525.31 427.5L525.09 427.56L524.86 427.61L524.64 427.67L524.41 427.73L524.18 427.79L523.96 427.84L523.73 427.9L523.5 427.95L523.27 428.01L523.05 428.06L522.82 428.11L522.59 428.17L522.36 428.22L522.13 428.27L521.91 428.32L521.68 428.37L521.45 428.42L518.58 452.54L518.57 452.66L518.55 452.79L518.52 452.92L518.49 453.04L518.45 453.17L518.41 453.29L518.36 453.41L518.31 453.52L518.26 453.64L518.2 453.75L518.14 453.86L518.07 453.97L518 454.08L517.92 454.18L517.84 454.28L517.76 454.38L517.68 454.48L517.59 454.57L517.5 454.66L517.4 454.74L517.31 454.83L517.2 454.91L517.1 454.98L517 455.06L516.89 455.13L516.78 455.19L516.67 455.25L516.55 455.31L516.44 455.36L516.32 455.41L516.2 455.46L516.08 455.5L515.96 455.53L515.83 455.56L515.71 455.59L515.58 455.61L515.46 455.63L515.33 455.64L515.2 455.64L515.07 455.64L490.92 455.67L490.79 455.66L490.67 455.65L490.54 455.64L490.41 455.62L490.29 455.6L490.16 455.57L490.04 455.54L489.92 455.5L489.8 455.46L489.68 455.41L489.56 455.36L489.44 455.31L489.33 455.25L489.22 455.19L489.11 455.12L489 455.05L488.9 454.98L488.8 454.9L488.7 454.82L488.6 454.74L488.51 454.65L488.41 454.57L488.33 454.47L488.24 454.38L488.16 454.28L488.08 454.18L488.01 454.08L487.94 453.97L487.87 453.86L487.8 453.75L487.74 453.64L487.69 453.52L487.64 453.41L487.59 453.29L487.55 453.17L487.51 453.04L487.48 452.92L487.45 452.79L487.42 452.67L487.4 452.54L484.57 428.42L484.34 428.37L484.11 428.32L483.88 428.27L483.65 428.22L483.42 428.17L483.19 428.12L482.96 428.06L482.73 428.01L482.5 427.95L482.27 427.9L482.04 427.84L481.82 427.79L481.59 427.73L481.36 427.67L481.13 427.62L480.91 427.56L480.68 427.5L480.45 427.44L480.23 427.38L480 427.32L479.78 427.26L479.55 427.19L479.33 427.13L479.1 427.07L478.88 427L478.65 426.94L478.43 426.88L478.21 426.81L477.98 426.74L477.76 426.68L477.54 426.61L477.32 426.54L477.09 426.48L476.87 426.41L476.65 426.34L476.43 426.27L476.21 426.2L475.99 426.13L475.77 426.06L475.54 425.99L475.52 425.98L475.51 425.97L475.49 425.97L475.47 425.96L475.45 425.95L475.43 425.95L475.41 425.94L475.39 425.93L475.37 425.92L475.35 425.92L475.33 425.91L475.31 425.9L475.29 425.89L475.27 425.89L475.25 425.88L475.24 425.87L475.2 425.86L475.12 425.82L475.1 425.82L475.06 425.8L475.05 425.79L475.03 425.78L475.01 425.78L474.99 425.77L474.97 425.76L474.95 425.75L474.93 425.75L474.91 425.74L474.89 425.73L474.87 425.73L474.85 425.72L474.83 425.71L474.81 425.7L474.79 425.7L474.77 425.69L474.23 425.51L473.68 425.32L473.14 425.13L472.6 424.93L472.06 424.73L471.52 424.53L470.98 424.33L470.45 424.12L469.91 423.91L469.38 423.7L468.85 423.48L468.33 423.26L467.8 423.04L467.27 422.82L466.75 422.59L466.23 422.35L465.71 422.12L465.19 421.88L464.68 421.64L464.16 421.4L463.65 421.15L463.14 420.9L462.63 420.64L462.12 420.39L461.62 420.13L461.12 419.86L460.62 419.6L460.12 419.33L459.62 419.05L459.13 418.78L458.63 418.5L458.14 418.22L457.65 417.93L457.17 417.64L456.68 417.35L456.2 417.05L455.72 416.76L455.24 416.45L454.76 416.15L454.29 415.84L441.73 425.73L441.45 425.99L435.2 430.89L435.1 430.97L434.99 431.04L434.88 431.11L434.77 431.18L434.66 431.24L434.54 431.3L434.43 431.35L434.31 431.39L434.19 431.44L434.07 431.48L433.94 431.51L433.82 431.54L433.69 431.56L433.57 431.58L433.44 431.6L433.31 431.61L433.19 431.62L433.06 431.62L432.93 431.62L432.8 431.62L432.67 431.61L432.55 431.59L432.42 431.58L432.29 431.55L432.17 431.53L432.04 431.5L431.92 431.46L431.8 431.42L431.68 431.38L431.56 431.33L431.44 431.28L431.33 431.22L431.21 431.16L431.1 431.09L431 431.02L430.89 430.95L430.79 430.87L430.69 430.79L430.59 430.71L430.5 430.62L425.84 425.99L425.61 425.73L413.44 413.54L413.35 413.44L413.26 413.35L413.18 413.25L413.1 413.15L413.02 413.05L412.95 412.94L412.89 412.83L412.83 412.72L412.77 412.61L412.72 412.49L412.67 412.37L412.62 412.25L412.58 412.13L412.55 412.01L412.52 411.89L412.49 411.77L412.47 411.64L412.45 411.52L412.43 411.39L412.42 411.26L412.42 411.14L412.42 411.01L412.42 410.88L412.43 410.76L412.44 410.63L412.46 410.5L412.48 410.38L412.5 410.25L412.53 410.13L412.57 410.01L412.61 409.88L412.65 409.76L412.7 409.64L412.75 409.53L412.81 409.41L412.87 409.3L412.94 409.19L413.01 409.08L413.08 408.97L413.16 408.87L418.4 402.23L428.19 389.8L427.75 389.11L427.31 388.42L426.89 387.73L426.46 387.03L426.05 386.33L425.63 385.62L425.23 384.91L424.83 384.2L424.44 383.48L424.05 382.76L423.67 382.04L423.3 381.31L422.93 380.58L422.57 379.84L422.22 379.1L421.87 378.36L421.53 377.61L421.2 376.86L420.87 376.1L420.55 375.35L420.24 374.58L419.93 373.82L419.63 373.05L419.34 372.28L419.05 371.5L418.77 370.72L418.5 369.94L418.23 369.16L417.98 368.37L417.73 367.58L417.48 366.78L417.25 365.98L417.02 365.18L416.8 364.38L416.59 363.57L416.38 362.76L416.18 361.94L415.99 361.13L415.81 360.31L415.63 359.48L391.51 356.65L391.38 356.63L391.26 356.61L391.13 356.58L391.01 356.55L390.88 356.51L390.76 356.47L390.64 356.42L390.52 356.37L390.41 356.31L390.29 356.25L390.18 356.19L390.07 356.12L389.97 356.05L389.86 355.98L389.76 355.9L389.66 355.82L389.57 355.73L389.48 355.64L389.39 355.55L389.3 355.46L389.22 355.36L389.14 355.26L389.06 355.16L388.99 355.05L388.92 354.94L388.85 354.83L388.79 354.72L388.73 354.61L388.68 354.49L388.63 354.38L388.59 354.26L388.54 354.13L388.51 354.01L388.48 353.89L388.45 353.76L388.43 353.64L388.41 353.51L388.4 353.38L388.39 353.25L388.38 353.12L388.38 328.97L388.39 328.84L388.4 328.71L388.41 328.59L388.43 328.46L388.45 328.34L388.48 328.21L388.51 328.09L388.54 327.97L388.58 327.85L388.63 327.73L388.68 327.61L388.73 327.5L388.79 327.38L388.85 327.27L388.92 327.16L388.99 327.06L389.06 326.95L389.14 326.85L389.22 326.75L389.3 326.65L389.39 326.56L389.48 326.47L389.57 326.38L389.66 326.3L389.76 326.22L389.86 326.14L389.97 326.06L390.07 325.99L390.18 325.93L390.29 325.86L390.41 325.81L390.52 325.75L390.64 325.7L390.76 325.65L390.88 325.61L391 325.58L391.13 325.54L391.26 325.52L391.38 325.49L391.51 325.48L415.63 322.61L415.81 321.79L415.99 320.97L416.18 320.15L416.38 319.34L416.59 318.53L416.8 317.72L417.02 316.92L417.25 316.12L417.48 315.32L417.73 314.52L417.98 313.73L418.23 312.95L418.5 312.16L418.77 311.38L419.05 310.6L419.34 309.82L419.63 309.05L419.93 308.29L420.24 307.52L420.55 306.76L420.87 306L421.2 305.25L421.53 304.5L421.87 303.75L422.22 303.01L422.57 302.27L422.93 301.53L423.3 300.8L423.67 300.07L424.05 299.35L424.44 298.63L424.83 297.91L425.23 297.2L425.63 296.49L426.05 295.79L426.46 295.09L426.89 294.39L427.31 293.7L427.75 293.01L428.19 292.33L413.16 273.24L413.08 273.14L413 273.04L412.93 272.93L412.87 272.82L412.81 272.71L412.75 272.59L412.7 272.47L412.65 272.36L412.6 272.24L412.57 272.12L412.53 271.99L412.5 271.87L412.48 271.74L412.45 271.62L412.44 271.49L412.43 271.37L412.42 271.24L412.41 271.11L412.42 270.98L412.42 270.86L412.43 270.73L412.45 270.6L412.46 270.47L412.49 270.35L412.51 270.22L412.55 270.1L412.58 269.98L412.62 269.86L412.67 269.74L412.72 269.62L412.77 269.5L412.83 269.39L412.89 269.28L412.95 269.17L413.02 269.06L413.1 268.95L413.17 268.85L413.26 268.75L413.34 268.65L413.43 268.56L430.49 251.47L430.59 251.38L430.69 251.3L430.79 251.22L430.89 251.14L431 251.07L431.11 251L431.22 250.94L431.33 250.88L431.45 250.82L431.56 250.77L431.68 250.72L431.8 250.68L431.92 250.64L432.05 250.6L432.17 250.57L432.3 250.55L432.42 250.52L432.55 250.51L432.68 250.49L432.8 250.48L432.93 250.48L433.06 250.47L433.18 250.48L433.31 250.49L433.44 250.5L433.56 250.51L433.69 250.53L433.81 250.56L433.94 250.59L434.06 250.62L434.18 250.66L434.3 250.7L434.41 250.75L434.53 250.8L434.64 250.86L434.76 250.92L434.86 250.98L434.97 251.05L435.08 251.12L435.18 251.2L454.29 266.25L454.97 265.81L455.65 265.38L456.35 264.95L457.04 264.52L457.74 264.1L458.44 263.69L459.15 263.29L459.86 262.89L460.58 262.5L461.3 262.11L462.02 261.73L462.75 261.36L463.48 260.99L464.22 260.63L464.95 260.28L465.7 259.93L466.44 259.59L467.19 259.26L467.95 258.93L468.71 258.61L469.47 258.29L470.23 257.99L471 257.69L471.77 257.4L472.55 257.11L473.33 256.83L474.11 256.56L474.89 256.29L475.68 256.04L476.47 255.79L477.27 255.54L478.07 255.31L478.87 255.08L479.67 254.86L480.48 254.65L481.29 254.44L482.11 254.24L482.93 254.05L483.75 253.87L484.57 253.69L487.4 229.56L487.42 229.43L487.44 229.3L487.47 229.18L487.51 229.05L487.55 228.93L487.59 228.81L487.64 228.69L487.69 228.57L487.74 228.46L487.8 228.35L487.87 228.24L487.93 228.13L488.01 228.02L488.08 227.92L488.16 227.82L488.24 227.72L488.33 227.62L488.41 227.53L488.5 227.44L488.6 227.35L488.7 227.27L488.8 227.19L488.9 227.12L489 227.04L489.11 226.97L489.22 226.91L489.33 226.85L489.44 226.79L489.56 226.74L489.68 226.69L489.79 226.64L489.91 226.6L490.04 226.56L490.16 226.53L490.28 226.5L490.41 226.48L490.54 226.46L490.66 226.45L490.79 226.44L490.92 226.44L515.07 226.44L515.14 226.44L515.2 226.44ZM502.53 276.76L502.3 276.76L502.07 276.77L501.84 276.77L501.61 276.78L501.38 276.78L501.14 276.79L500.91 276.8L500.68 276.81L500.45 276.82L500.23 276.83L500 276.85L499.77 276.86L499.54 276.87L499.31 276.89L499.08 276.9L498.86 276.92L498.63 276.94L498.4 276.96L498.17 276.98L497.95 277L497.72 277.02L497.5 277.04L497.27 277.06L497.04 277.08L496.82 277.11L496.59 277.13L496.37 277.16L496.14 277.18L495.92 277.21L495.7 277.24L495.47 277.27L495.25 277.29L495.02 277.32L494.8 277.35L494.58 277.38L494.35 277.41L494.13 277.45L493.91 277.48L491.58 277.85L489.29 278.31L487.02 278.84L484.79 279.46L482.58 280.15L480.42 280.92L478.29 281.76L476.19 282.68L474.14 283.67L472.13 284.72L470.16 285.85L468.24 287.04L466.36 288.29L464.52 289.61L462.74 290.99L461.01 292.43L459.33 293.93L457.7 295.49L456.13 297.1L454.62 298.77L453.16 300.49L451.77 302.26L450.43 304.08L449.16 305.95L447.96 307.86L446.82 309.82L445.75 311.82L444.74 313.86L443.81 315.94L442.95 318.07L442.17 320.22L441.46 322.42L440.83 324.64L440.28 326.9L439.81 329.19L439.42 331.51L439.11 333.86L438.89 336.23L438.76 338.63L438.71 341.05L438.75 343.1L438.84 345.14L439 347.16L439.22 349.17L439.51 351.15L439.85 353.12L440.25 355.06L440.71 356.98L441.22 358.88L441.8 360.75L442.42 362.6L443.11 364.43L443.84 366.22L444.63 367.99L445.47 369.73L446.36 371.44L447.3 373.12L448.29 374.77L449.32 376.39L450.4 377.97L451.53 379.52L452.7 381.03L453.92 382.51L455.17 383.95L456.47 385.35L457.81 386.72L459.19 388.04L460.61 389.32L462.07 390.56L463.56 391.76L465.09 392.91L466.66 394.02L468.26 395.08L469.89 396.09L471.55 397.06L473.25 397.98L474.97 398.85L476.72 399.67L478.51 400.43L480.32 401.15L480.85 401.35L481.38 401.54L481.91 401.73L482.45 401.91L482.99 402.09L483.53 402.27L484.07 402.44L484.62 402.61L485.16 402.77L485.71 402.93L486.26 403.08L486.81 403.23L487.37 403.38L487.92 403.52L488.48 403.65L489.04 403.78L489.6 403.9L490.17 404.02L490.73 404.14L491.3 404.25L491.87 404.36L492.44 404.46L493.01 404.55L493.59 404.64L494.16 404.73L494.74 404.81L495.32 404.88L495.9 404.95L496.48 405.01L497.07 405.07L497.65 405.13L498.24 405.17L498.83 405.22L499.42 405.25L500.01 405.28L500.61 405.31L501.2 405.33L501.8 405.34L502.4 405.35L503 405.35L503.2 405.35L503.41 405.35L503.61 405.35L503.82 405.35L504.02 405.34L504.22 405.34L504.43 405.33L504.63 405.33L504.83 405.32L505.04 405.31L505.24 405.3L505.44 405.3L505.64 405.29L505.85 405.27L506.05 405.26L506.25 405.25L506.45 405.24L506.66 405.23L506.86 405.21L507.06 405.2L507.26 405.18L507.46 405.16L507.66 405.15L507.86 405.13L508.06 405.11L508.27 405.1L508.47 405.08L508.67 405.06L508.87 405.04L509.07 405.02L509.27 404.99L509.47 404.97L509.67 404.95L509.87 404.93L510.07 404.91L510.27 404.88L510.47 404.86L510.67 404.83L510.86 404.81L511.06 404.78L513.43 404.44L515.76 404.02L518.07 403.51L520.34 402.92L522.58 402.25L524.79 401.5L526.95 400.67L529.08 399.77L531.17 398.8L533.22 397.75L535.23 396.64L537.19 395.45L539.1 394.2L540.97 392.89L542.78 391.51L544.55 390.06L546.26 388.56L547.92 387L549.52 385.38L551.06 383.71L552.54 381.98L553.97 380.2L555.33 378.36L556.62 376.48L557.85 374.56L559.02 372.58L560.11 370.57L561.13 368.5L562.08 366.4L562.96 364.26L563.76 362.08L564.48 359.87L565.12 357.62L565.69 355.34L566.17 353.02L566.56 350.68L566.88 348.31L567.1 345.91L567.24 343.49L567.28 341.05L567.24 338.77L567.12 336.51L566.93 334.27L566.66 332.05L566.31 329.86L565.89 327.69L565.4 325.55L564.83 323.44L564.2 321.36L563.5 319.3L562.73 317.28L561.9 315.3L561.01 313.34L560.05 311.43L559.02 309.55L557.94 307.71L556.8 305.9L555.61 304.14L554.35 302.42L553.04 300.75L551.68 299.12L550.27 297.54L548.8 296L547.29 294.51L545.72 293.08L544.12 291.69L542.46 290.36L540.76 289.08L539.02 287.86L537.23 286.69L535.41 285.59L533.55 284.54L531.64 283.55L529.71 282.62L527.73 281.76L525.73 280.96L523.69 280.23L521.62 279.57L519.52 278.97L517.4 278.44L517.05 278.37L516.7 278.29L516.35 278.21L516 278.14L515.65 278.07L515.3 277.99L514.95 277.93L514.59 277.86L514.24 277.79L513.89 277.73L513.53 277.67L513.18 277.61L512.82 277.55L512.47 277.5L512.11 277.44L511.75 277.39L511.39 277.34L511.03 277.29L510.68 277.25L510.32 277.2L509.95 277.16L509.59 277.12L509.23 277.08L508.87 277.04L508.51 277.01L508.14 276.98L507.78 276.95L507.41 276.92L507.05 276.9L506.68 276.87L506.32 276.85L505.95 276.83L505.58 276.82L505.22 276.8L504.85 276.79L504.48 276.78L504.11 276.77L503.74 276.76L503.37 276.76L503 276.76L502.77 276.76L502.53 276.76Z"
              id="a1xLwi6L8K"></path>
        <path d="M194.08 388.44L189.6 371.36L160 371.36L155.38 388.44L128.33 388.44L158.05 296.94L190.92 296.94L221.01 388.44L194.08 388.44ZM174.52 312.64L174.45 313.01L174.37 313.4L174.29 313.81L174.21 314.24L174.11 314.69L174.02 315.16L173.91 315.65L173.8 316.17L173.69 316.7L173.57 317.26L173.45 317.83L173.32 318.43L173.18 319.04L173.04 319.68L172.9 320.34L172.74 321.01L172.59 321.71L172.43 322.43L172.3 322.97L172.15 323.59L171.98 324.32L171.78 325.14L171.56 326.05L171.31 327.06L171.03 328.16L170.73 329.36L170.4 330.65L170.05 332.04L169.67 333.52L169.27 335.1L168.84 336.78L168.38 338.55L167.9 340.41L167.39 342.37L166.86 344.42L166.3 346.57L165.72 348.82L165.11 351.15L184.5 351.15L180.56 336.21L180.43 335.7L180.28 335.18L180.14 334.65L179.99 334.1L179.84 333.53L179.69 332.96L179.53 332.36L179.37 331.75L179.21 331.13L179.04 330.49L178.88 329.84L178.7 329.17L178.53 328.49L178.35 327.79L178.17 327.08L177.99 326.35L177.8 325.61L177.61 324.85L177.42 324.08L177.22 323.3L177.03 322.52L176.85 321.76L176.67 321.03L176.5 320.31L176.33 319.63L176.17 318.96L176.02 318.31L175.87 317.69L175.73 317.09L175.6 316.51L175.48 315.96L175.36 315.42L175.24 314.91L175.14 314.43L175.04 313.96L174.95 313.52L174.86 313.1L174.78 312.7L174.71 312.32L174.64 311.97L174.58 312.3L174.52 312.64Z"
              id="bF1AWYbCA"></path>
        <path d="M270.5 297.33L271.34 297.35L272.16 297.39L272.98 297.43L273.78 297.48L274.58 297.54L275.36 297.61L276.13 297.69L276.89 297.78L277.64 297.88L278.38 297.99L279.11 298.11L279.83 298.24L280.53 298.37L281.23 298.52L281.91 298.68L282.59 298.84L283.25 299.02L283.91 299.2L284.55 299.39L285.18 299.6L285.8 299.81L286.41 300.03L287.01 300.26L287.6 300.5L288.18 300.75L288.75 301.01L289.3 301.28L289.85 301.56L290.38 301.84L290.91 302.14L291.42 302.45L291.93 302.76L292.42 303.09L292.9 303.42L293.37 303.77L293.83 304.12L294.28 304.48L294.72 304.85L295.14 305.24L295.56 305.62L295.97 306.02L296.36 306.43L296.75 306.84L297.12 307.26L297.48 307.69L297.83 308.13L298.17 308.57L298.51 309.02L298.82 309.48L299.13 309.95L299.43 310.43L299.72 310.91L299.99 311.41L300.26 311.91L300.52 312.41L300.76 312.93L300.99 313.46L301.21 313.99L301.43 314.53L301.63 315.08L301.82 315.63L301.99 316.19L302.16 316.77L302.32 317.35L302.47 317.93L302.6 318.53L302.73 319.13L302.84 319.74L302.94 320.36L303.04 320.99L303.12 321.63L303.19 322.27L303.25 322.92L303.3 323.58L303.34 324.25L303.36 324.92L303.38 325.6L303.38 326.3L303.38 327.06L303.36 327.81L303.33 328.55L303.29 329.28L303.24 330.01L303.18 330.72L303.11 331.43L303.02 332.13L302.93 332.82L302.82 333.5L302.7 334.17L302.57 334.83L302.43 335.49L302.28 336.14L302.11 336.77L301.94 337.4L301.75 338.02L301.55 338.63L301.35 339.24L301.13 339.83L300.89 340.41L300.65 340.99L300.4 341.56L300.13 342.12L299.86 342.67L299.57 343.21L299.27 343.74L298.96 344.27L298.64 344.78L298.3 345.29L297.96 345.79L297.6 346.28L297.24 346.76L296.86 347.23L296.47 347.7L296.07 348.15L295.66 348.6L295.24 349.04L294.8 349.47L294.36 349.89L293.9 350.3L293.44 350.7L292.96 351.09L292.48 351.46L291.99 351.83L291.49 352.19L290.98 352.54L290.46 352.88L289.93 353.21L289.39 353.52L288.84 353.83L288.28 354.13L287.71 354.41L287.13 354.69L286.55 354.95L285.95 355.21L285.34 355.45L284.73 355.69L284.1 355.91L283.47 356.12L282.82 356.33L282.17 356.52L281.51 356.7L280.84 356.87L280.16 357.03L279.46 357.18L278.76 357.32L278.05 357.45L277.33 357.57L276.61 357.68L275.87 357.78L275.12 357.87L274.36 357.95L273.6 358.02L272.82 358.07L272.04 358.12L271.24 358.16L270.44 358.18L269.62 358.2L268.8 358.2L261.87 358.2L261.87 388.44L237.24 388.44L237.24 297.31L268.8 297.31L269.66 297.32L270.5 297.33ZM261.86 338.13L266.36 338.13L267.2 338.12L268.01 338.06L268.79 337.97L269.55 337.84L270.29 337.67L270.99 337.47L271.67 337.23L272.32 336.96L272.95 336.64L273.54 336.29L274.11 335.91L274.65 335.49L275.16 335.03L275.65 334.53L276.1 334.01L276.5 333.46L276.87 332.89L277.2 332.28L277.49 331.65L277.75 330.98L277.96 330.29L278.14 329.58L278.27 328.83L278.37 328.06L278.43 327.25L278.45 326.42L278.39 325.06L278.2 323.8L277.9 322.66L277.48 321.62L276.93 320.69L276.27 319.87L275.48 319.16L274.57 318.56L273.55 318.07L272.4 317.69L271.13 317.41L269.74 317.25L268.23 317.2L261.86 317.2L261.86 338.13Z"
              id="a5tS6uvPZz"></path>
        <path d="M349.02 297.31C349.02 297.31 349.02 297.31 349.02 297.31C349.02 351.99 349.02 382.37 349.02 388.44C349.02 388.44 349.02 388.44 349.02 388.44C334.18 388.44 325.94 388.44 324.29 388.44C324.29 388.44 324.29 388.44 324.29 388.44C324.29 333.76 324.29 303.39 324.29 297.31C324.29 297.31 324.29 297.31 324.29 297.31C339.13 297.31 347.37 297.31 349.02 297.31Z"
              id="b4D8TDiUAG"></path>
    </defs>
    <g>
        <g>
            <g>
                <use xlink:href="#dozhZ6WzI" opacity="1" fill="#111111" fill-opacity="1"></use>
                <g>
                    <use xlink:href="#dozhZ6WzI" opacity="1" fill-opacity="0" stroke="#000000" stroke-width="1"
                         stroke-opacity="0"></use>
                </g>
            </g>
            <g>
                <use xlink:href="#e1sD9Ld1o" opacity="1" fill="#111111" fill-opacity="1"></use>
                <g>
                    <use xlink:href="#e1sD9Ld1o" opacity="1" fill-opacity="0" stroke="#000000" stroke-width="1"
                         stroke-opacity="0"></use>
                </g>
            </g>
            <g>
                <use xlink:href="#a1xLwi6L8K" opacity="1" fill="#ff931e" fill-opacity="1"></use>
                <g>
                    <use xlink:href="#a1xLwi6L8K" opacity="1" fill-opacity="0" stroke="#000000" stroke-width="1"
                         stroke-opacity="0"></use>
                </g>
            </g>
            <g>
                <use xlink:href="#bF1AWYbCA" opacity="1" fill="#111111" fill-opacity="1"></use>
                <g>
                    <use xlink:href="#bF1AWYbCA" opacity="1" fill-opacity="0" stroke="#000000" stroke-width="1"
                         stroke-opacity="0"></use>
                </g>
            </g>
            <g>
                <use xlink:href="#a5tS6uvPZz" opacity="1" fill="#111111" fill-opacity="1"></use>
                <g>
                    <use xlink:href="#a5tS6uvPZz" opacity="1" fill-opacity="0" stroke="#000000" stroke-width="1"
                         stroke-opacity="0"></use>
                </g>
            </g>
            <g>
                <use xlink:href="#b4D8TDiUAG" opacity="1" fill="#111111" fill-opacity="1"></use>
                <g>
                    <use xlink:href="#b4D8TDiUAG" opacity="1" fill-opacity="0" stroke="#000000" stroke-width="1"
                         stroke-opacity="0"></use>
                </g>
            </g>
        </g>
    </g>
</svg>
